<svg width="61" height="84" viewBox="0 0 61 84" fill="none" xmlns="http://www.w3.org/2000/svg">
<path d="M1.4375 81.9375V30.1875C1.4375 14.3085 14.3085 1.4375 30.1875 1.4375C46.0665 1.4375 58.9375 14.3085 58.9375 30.1875V81.9375H1.4375Z" fill="white" stroke="#4D4D4D" stroke-width="2.875" stroke-linejoin="round"/>
<path d="M1.4375 30.1875C1.4375 14.3085 14.3085 1.4375 30.1875 1.4375C46.0665 1.4375 58.9375 14.3085 58.9375 30.1875H1.4375Z" fill="#FFD700" stroke="#4D4D4D" stroke-width="2.875" stroke-linejoin="round"/>
<path d="M6.93737 62.6875V47.0057H10.2529V53.9201H10.4597L16.103 47.0057H20.077L14.2576 54.0273L20.1459 62.6875H16.1795L11.8839 56.2402L10.2529 58.231V62.6875H6.93737ZM21.8037 47.0057H25.8926L30.2112 57.5419H30.395L34.7136 47.0057H38.8026V62.6875H35.5866V52.4805H35.4564L31.3981 62.6109H29.2082L25.1499 52.4422H25.0197V62.6875H21.8037V47.0057ZM50.0413 51.5157C49.9801 50.8981 49.7172 50.4182 49.2526 50.0762C48.7881 49.7342 48.1577 49.5632 47.3613 49.5632C46.8202 49.5632 46.3633 49.6397 45.9907 49.7929C45.618 49.9409 45.3322 50.1477 45.1331 50.4131C44.9391 50.6786 44.8421 50.9797 44.8421 51.3167C44.8319 51.5974 44.8906 51.8424 45.0182 52.0517C45.151 52.261 45.3322 52.4422 45.5619 52.5954C45.7916 52.7434 46.0571 52.8736 46.3582 52.9859C46.6594 53.0931 46.981 53.185 47.323 53.2616L48.7319 53.5985C49.416 53.7516 50.0439 53.9558 50.6156 54.211C51.1873 54.4663 51.6825 54.7802 52.1011 55.1529C52.5197 55.5255 52.8438 55.9645 53.0735 56.4699C53.3084 56.9753 53.4283 57.5547 53.4334 58.2081C53.4283 59.1678 53.1833 59.9998 52.6983 60.7043C52.2185 61.4037 51.5242 61.9473 50.6156 62.3353C49.7121 62.7181 48.6222 62.9096 47.346 62.9096C46.08 62.9096 44.9774 62.7156 44.0381 62.3276C43.1039 61.9397 42.374 61.3654 41.8482 60.6048C41.3275 59.839 41.0544 58.8921 41.0289 57.764H44.2372C44.2729 58.2898 44.4235 58.7288 44.689 59.081C44.9595 59.4281 45.3194 59.691 45.7686 59.8697C46.223 60.0432 46.736 60.13 47.3077 60.13C47.8692 60.13 48.3567 60.0483 48.7702 59.885C49.1888 59.7216 49.513 59.4945 49.7427 59.2035C49.9724 58.9125 50.0873 58.5782 50.0873 58.2004C50.0873 57.8482 49.9826 57.5521 49.7733 57.3122C49.5691 57.0723 49.2679 56.8681 48.8698 56.6996C48.4767 56.5312 47.9943 56.378 47.4226 56.2402L45.715 55.8114C44.3929 55.4898 43.349 54.987 42.5833 54.3029C41.8175 53.6189 41.4372 52.6975 41.4423 51.5387C41.4372 50.5892 41.6899 49.7597 42.2004 49.0501C42.716 48.3406 43.423 47.7867 44.3214 47.3885C45.2199 46.9904 46.2408 46.7913 47.3843 46.7913C48.5482 46.7913 49.564 46.9904 50.4318 47.3885C51.3047 47.7867 51.9837 48.3406 52.4686 49.0501C52.9536 49.7597 53.2037 50.5816 53.219 51.5157H50.0413Z" fill="#4D4D4D"/>
</svg>
