<svg width="11" height="11" viewBox="0 0 11 11" fill="none" xmlns="http://www.w3.org/2000/svg">
<g clip-path="url(#clip0_29_230)">
<path d="M10.944 5.66592L10.4168 6.35576C10.3654 6.42299 10.3481 6.51016 10.37 6.59201L10.5938 7.4305C10.6257 7.54973 10.5736 7.67561 10.4666 7.73737L9.71529 8.17161C9.642 8.21401 9.59251 8.28804 9.58128 8.37196L9.46648 9.23246C9.45022 9.35465 9.35404 9.45068 9.232 9.46694L8.3715 9.58174C8.28758 9.59297 8.21356 9.64246 8.17115 9.71575L7.73691 10.4671C7.67515 10.5739 7.54942 10.626 7.43004 10.5943L6.5917 10.3704C6.51 10.3486 6.42268 10.3658 6.35545 10.4173L5.6656 10.9444C5.56779 11.0192 5.43186 11.0192 5.33405 10.9444L4.64421 10.4173C4.57698 10.3658 4.48981 10.3486 4.40795 10.3704L3.56947 10.5943C3.45024 10.6262 3.32436 10.574 3.2626 10.4671L2.82836 9.71575C2.78595 9.64246 2.71193 9.59297 2.62801 9.58174L1.76751 9.46694C1.64532 9.45068 1.54928 9.3545 1.53303 9.23246L1.41823 8.37196C1.407 8.28804 1.35751 8.21401 1.28422 8.17161L0.532912 7.73737C0.426088 7.67561 0.373932 7.54988 0.405699 7.4305L0.62954 6.59216C0.651407 6.51046 0.63412 6.42313 0.582703 6.35591L0.0562696 5.66592C-0.018492 5.5681 -0.018492 5.43217 0.0562696 5.33436L0.583442 4.64452C0.634859 4.57729 0.652146 4.49012 0.630279 4.40827L0.406437 3.56978C0.374523 3.45055 0.426679 3.32467 0.53365 3.26291L1.28496 2.82867C1.35824 2.78626 1.40774 2.71224 1.41897 2.62832L1.53377 1.76782C1.55002 1.64563 1.64621 1.5496 1.76825 1.53334L2.62875 1.41854C2.71267 1.40731 2.78669 1.35782 2.8291 1.28453L3.26333 0.533222C3.32509 0.426399 3.45083 0.374243 3.57021 0.406009L4.40855 0.629851C4.49025 0.651718 4.57757 0.634431 4.6448 0.583014L5.33435 0.0562848C5.43216 -0.0184768 5.56809 -0.0184768 5.6659 0.0562848L6.35575 0.583457C6.42297 0.634874 6.51014 0.652161 6.592 0.630294L7.43048 0.406453C7.54971 0.374539 7.6756 0.426694 7.73736 0.533666L8.17159 1.28498C8.214 1.35826 8.28802 1.40776 8.37194 1.41898L9.23244 1.53379C9.35463 1.55004 9.45067 1.64622 9.46692 1.76827L9.58172 2.62876C9.59295 2.71268 9.64245 2.78671 9.71573 2.82911L10.467 3.26335C10.5739 3.32511 10.626 3.45084 10.5943 3.57023L10.3704 4.40856C10.3485 4.49027 10.3658 4.57759 10.4172 4.64481L10.9444 5.33466C11.0192 5.43247 11.0192 5.5684 10.9444 5.66621L10.944 5.66592Z" fill="#1CB24A"/>
<path d="M3.24267 5.25548C3.05931 5.04863 2.96756 4.76702 2.96756 4.41035V4.40725C2.96756 4.05265 3.05931 3.77207 3.24267 3.56522C3.42603 3.35837 3.67676 3.25494 3.99457 3.25494C4.31238 3.25494 4.56208 3.35837 4.74337 3.56522C4.92466 3.77207 5.01538 4.05279 5.01538 4.40725V4.41035C5.01538 4.76702 4.92466 5.04863 4.74337 5.25548C4.56193 5.46233 4.31238 5.56576 3.99457 5.56576C3.67676 5.56576 3.42603 5.46233 3.24267 5.25548ZM4.27574 4.89172C4.3409 4.78061 4.37355 4.62119 4.37355 4.41331V4.4102C4.37355 4.2004 4.3409 4.04038 4.27574 3.93031C4.21043 3.82024 4.11676 3.76527 3.99457 3.76527C3.87238 3.76527 3.77501 3.82024 3.70882 3.93031C3.64263 4.04038 3.60953 4.2004 3.60953 4.4102V4.41331C3.60953 4.62119 3.64263 4.78061 3.70882 4.89172C3.77501 5.00283 3.87031 5.05823 3.99457 5.05823C4.11883 5.05823 4.21058 5.00268 4.27574 4.89172ZM3.76837 7.70533L6.55597 3.29469H7.23458L4.44994 7.70533H3.76837ZM6.26106 7.43332C6.07874 7.22543 5.98743 6.94427 5.98743 6.58967V6.58656C5.98743 6.23004 6.07859 5.94872 6.26106 5.74291C6.44338 5.53709 6.69352 5.43426 7.01148 5.43426C7.32944 5.43426 7.57899 5.53724 7.76028 5.74291C7.94157 5.94872 8.03229 6.23004 8.03229 6.58656V6.58967C8.03229 6.94427 7.94157 7.22543 7.76028 7.43332C7.57884 7.6412 7.32929 7.74507 7.01148 7.74507C6.69367 7.74507 6.44338 7.6412 6.26106 7.43332ZM7.29265 7.07103C7.35781 6.95993 7.39046 6.79947 7.39046 6.58967V6.58656C7.39046 6.37868 7.35781 6.2197 7.29265 6.10977C7.22734 5.9997 7.13367 5.94474 7.01148 5.94474C6.88929 5.94474 6.79192 5.9997 6.72573 6.10977C6.65954 6.21985 6.62644 6.37883 6.62644 6.58656V6.58967C6.62644 6.79962 6.65954 6.96007 6.72573 7.07103C6.79192 7.18214 6.88722 7.23755 7.01148 7.23755C7.13574 7.23755 7.22749 7.182 7.29265 7.07103Z" fill="white"/>
</g>
<defs>
<clipPath id="clip0_29_230">
<rect width="11" height="11" fill="white"/>
</clipPath>
</defs>
</svg>
